<?xml version="1.0" standalone="no"?>
<!DOCTYPE svg PUBLIC "-//W3C//DTD SVG 20010904//EN"
 "http://www.w3.org/TR/2001/REC-SVG-20010904/DTD/svg10.dtd">
<svg version="1.0" xmlns="http://www.w3.org/2000/svg"
 width="1266.000000pt" height="1280.000000pt" viewBox="0 0 1266.000000 1280.000000"
 preserveAspectRatio="xMidYMid meet">
<metadata>
Created by potrace 1.15, written by Peter Selinger 2001-2017
</metadata>
<g transform="translate(0.000000,1280.000000) scale(0.100000,-0.100000)"
fill="#000000" stroke="none">
<path d="M6873 12781 c-64 -30 -82 -76 -103 -270 -16 -150 -5 -201 107 -500
104 -278 135 -346 224 -492 58 -93 68 -119 50 -119 -15 0 -197 39 -330 70 -70
16 -171 34 -226 41 -55 6 -151 27 -212 45 -143 43 -217 45 -291 8 -107 -53
-166 -163 -160 -294 7 -154 57 -213 451 -532 172 -139 413 -336 537 -438 557
-460 724 -555 1185 -675 76 -19 140 -37 141 -38 6 -7 -19 -211 -32 -257 -11
-37 -20 -157 -29 -375 -21 -481 -31 -544 -97 -613 -47 -48 -116 -69 -264 -81
-134 -11 -160 -15 -484 -77 -253 -48 -378 -50 -590 -11 -416 76 -650 76 -1035
1 -178 -35 -808 -185 -985 -235 -302 -86 -567 -199 -850 -364 -177 -102 -771
-463 -1119 -678 -684 -423 -865 -555 -1078 -789 -212 -233 -344 -400 -449
-570 -222 -359 -568 -1183 -643 -1529 -34 -163 -44 -323 -45 -799 -1 -390 1
-468 16 -550 19 -106 58 -246 111 -395 l35 -100 -147 -6 c-159 -7 -193 -15
-291 -64 -119 -60 -196 -146 -242 -271 -31 -85 -31 -277 0 -386 49 -174 117
-280 235 -369 94 -71 210 -128 332 -164 50 -14 119 -35 155 -45 71 -21 245
-116 586 -317 121 -72 271 -158 333 -192 273 -149 351 -163 906 -166 204 0
419 -5 479 -10 73 -5 185 -4 345 6 385 23 419 21 1131 -60 766 -87 907 -94
1001 -50 78 37 114 85 113 153 -1 56 -34 133 -85 197 -16 20 -29 40 -29 43 0
10 269 7 538 -6 195 -9 265 -9 309 0 199 42 233 230 92 518 -70 143 -168 233
-354 326 -258 130 -559 193 -1040 218 -121 6 -245 15 -275 19 l-55 7 60 60
c33 33 123 107 200 166 209 158 315 277 410 463 53 104 87 205 115 345 62 297
118 366 375 455 157 55 255 104 379 189 108 75 340 199 412 220 17 5 32 -6 78
-63 71 -86 141 -147 265 -231 84 -57 107 -79 179 -175 46 -61 116 -147 155
-193 116 -135 127 -157 196 -404 104 -370 126 -434 228 -639 121 -245 165
-361 259 -673 83 -275 86 -287 138 -429 22 -59 38 -126 42 -170 10 -103 37
-169 93 -225 95 -95 231 -140 519 -173 97 -11 229 -29 292 -40 291 -50 510
-27 608 64 29 27 62 89 62 116 0 30 15 33 52 12 89 -51 270 -80 747 -117 165
-13 228 -14 279 -6 79 13 148 54 173 102 23 42 24 119 3 175 -8 22 -30 83 -48
135 -66 189 -94 227 -261 346 -112 80 -234 214 -410 448 -185 247 -214 310
-285 621 -23 99 -57 250 -77 335 -19 85 -59 236 -88 335 -108 365 -129 475
-130 670 0 116 4 153 23 218 33 114 83 208 177 332 52 69 106 156 144 234 34
68 71 136 81 152 39 54 91 178 176 419 324 924 463 1408 523 1825 11 77 27
239 36 360 9 121 20 261 26 310 5 50 9 128 8 174 l-3 84 45 41 c110 99 347
193 571 226 207 31 360 87 553 204 l59 35 32 -19 c17 -11 41 -20 53 -20 52 0
100 64 87 115 -5 19 -2 25 9 25 27 0 67 48 64 78 -1 15 16 65 39 112 69 145
109 346 83 421 -11 31 -8 37 39 106 27 41 55 93 61 116 39 146 -72 360 -287
552 -49 43 -154 143 -234 220 -178 174 -284 249 -855 608 -134 84 -254 136
-377 163 -62 13 -156 35 -208 49 -96 25 -198 37 -475 54 -82 6 -204 17 -270
25 -66 9 -146 19 -178 22 -51 5 -67 13 -135 64 -42 31 -111 78 -152 103 -41
25 -85 56 -97 69 -12 13 -61 91 -109 173 -244 419 -498 753 -723 952 -260 230
-847 625 -1186 798 -240 123 -399 160 -492 116z m2227 -11346 c60 -102 230
-359 315 -480 59 -83 158 -245 153 -250 -2 -1 -34 16 -73 39 -84 49 -191 156
-275 274 -102 143 -140 233 -181 432 -11 52 -22 104 -25 115 -6 22 5 5 86
-130z"/>
</g>
</svg>
