<?xml version="1.0" standalone="no"?>
<!DOCTYPE svg PUBLIC "-//W3C//DTD SVG 20010904//EN"
 "http://www.w3.org/TR/2001/REC-SVG-20010904/DTD/svg10.dtd">
<svg version="1.0" xmlns="http://www.w3.org/2000/svg"
 width="1273.000000pt" height="1280.000000pt" viewBox="0 0 1273.000000 1280.000000"
 preserveAspectRatio="xMidYMid meet">
<metadata>
Created by potrace 1.15, written by Peter Selinger 2001-2017
</metadata>
<g transform="translate(0.000000,1280.000000) scale(0.100000,-0.100000)"
fill="#000000" stroke="none">
<path d="M8076 12788 c-23 -18 -24 -74 -1 -143 39 -117 188 -378 343 -600 185
-264 261 -308 602 -348 155 -19 224 -44 292 -106 l52 -48 -75 -23 c-228 -69
-418 -102 -594 -103 -147 0 -231 11 -425 55 -123 28 -145 30 -250 24 -181 -9
-419 -69 -970 -241 -364 -114 -500 -150 -737 -195 -290 -55 -331 -58 -429 -32
-94 25 -243 39 -494 47 l-185 7 -120 59 c-187 92 -301 118 -382 84 -45 -19
-109 -19 -163 0 -23 8 -97 51 -163 94 -145 95 -160 101 -242 101 -116 0 -298
-74 -405 -166 -97 -83 -138 -92 -319 -68 -69 9 -147 14 -173 11 -106 -13 -263
-128 -313 -231 -15 -32 -28 -83 -34 -136 -19 -168 -90 -307 -306 -605 -104
-144 -162 -297 -186 -495 -15 -126 -6 -428 22 -690 33 -317 23 -452 -65 -885
-92 -454 -107 -553 -131 -890 -23 -322 -48 -447 -121 -601 -87 -185 -214 -295
-434 -379 -204 -78 -210 -87 -210 -308 0 -95 -6 -185 -15 -233 -20 -108 -35
-293 -35 -451 l0 -132 -85 -42 c-62 -31 -97 -42 -130 -42 -25 0 -45 -3 -45 -7
0 -4 18 -26 40 -50 l41 -44 -23 -18 c-57 -43 -185 -114 -265 -146 -83 -34 -95
-36 -208 -37 -139 -2 -170 -13 -245 -89 -44 -44 -88 -111 -79 -121 3 -2 50 13
105 35 89 35 238 69 250 57 2 -2 -40 -30 -93 -62 -124 -74 -200 -132 -250
-192 -41 -48 -93 -141 -93 -165 0 -7 -35 -41 -79 -76 -101 -81 -254 -238 -248
-254 6 -17 36 -13 134 18 l82 26 48 -18 c97 -38 222 -17 324 53 l45 31 61 -16
c53 -14 71 -14 125 -4 87 18 213 80 274 135 29 26 58 47 65 47 30 0 119 50
202 114 48 36 87 64 87 61 0 -3 9 -60 20 -128 58 -366 48 -1001 -20 -1244 -25
-92 -25 -180 0 -263 26 -84 25 -99 -5 -187 l-26 -73 21 -85 c26 -107 39 -209
40 -305 0 -41 7 -106 15 -145 47 -222 175 -316 564 -416 181 -46 241 -37 241
37 l0 29 20 -33 c39 -63 83 -63 155 0 55 48 85 118 85 198 -1 179 -141 581
-270 770 -52 77 -95 167 -115 245 -47 182 -55 960 -19 1847 6 150 8 156 30
167 15 7 26 24 34 53 29 119 30 121 119 205 96 92 128 111 221 130 113 23 212
85 413 257 48 41 91 78 96 80 5 3 2 -20 -5 -52 -40 -167 5 -349 126 -512 28
-37 65 -101 84 -141 38 -83 129 -356 206 -619 146 -495 190 -624 267 -775 112
-220 232 -587 262 -800 8 -56 7 -82 -5 -130 -20 -74 -14 -124 25 -207 25 -54
30 -79 34 -178 6 -129 35 -280 74 -384 51 -137 162 -244 309 -299 342 -128
341 -128 378 -95 17 15 29 39 34 68 8 42 9 44 20 23 16 -30 68 -56 97 -49 36
9 123 85 150 130 64 109 42 438 -39 608 -25 52 -38 70 -149 210 -39 50 -62 93
-90 171 -23 64 -66 150 -111 223 -40 65 -103 169 -140 229 -148 240 -237 465
-330 830 -107 426 -210 959 -232 1206 -8 95 11 144 88 225 102 109 228 195
631 431 409 240 459 274 575 395 82 85 138 164 185 260 23 48 46 87 51 88 5 0
63 -24 130 -54 67 -29 150 -63 186 -75 149 -48 381 -88 573 -98 70 -3 127 -8
127 -10 0 -18 71 -361 110 -533 65 -283 74 -367 67 -619 -6 -230 -21 -355 -73
-611 -35 -170 -36 -180 -31 -345 5 -164 21 -295 79 -635 20 -123 22 -168 23
-495 0 -352 -6 -456 -41 -755 -30 -253 -55 -413 -89 -564 -19 -85 -35 -176
-35 -201 0 -25 -11 -97 -25 -161 -14 -64 -25 -128 -25 -143 0 -15 -9 -63 -20
-107 -29 -110 -46 -393 -31 -486 21 -127 80 -209 238 -327 175 -132 207 -140
249 -67 l21 38 7 -27 c9 -37 50 -75 80 -75 13 0 74 25 135 55 132 66 208 132
248 213 28 57 28 58 27 252 -1 211 -20 342 -68 462 -17 41 -22 70 -19 105 3
31 -5 88 -21 160 -15 63 -26 142 -26 181 0 39 -13 148 -30 243 -28 166 -47
383 -57 664 -4 101 0 158 16 255 23 144 44 343 66 620 18 234 33 294 121 484
74 160 108 252 125 346 7 39 14 247 19 515 6 355 10 464 23 517 41 174 94 363
207 734 l22 70 83 -4 c68 -4 99 0 172 21 48 14 95 28 104 32 13 5 17 -6 22
-68 9 -105 52 -318 92 -456 85 -291 135 -646 135 -956 0 -150 -3 -181 -25
-260 -36 -130 -49 -267 -42 -430 9 -182 26 -281 76 -440 76 -240 91 -323 102
-590 12 -283 4 -1253 -11 -1305 -14 -50 -13 -64 12 -95 15 -19 21 -39 19 -61
-4 -55 47 -124 93 -124 30 0 36 -38 36 -243 0 -127 4 -217 11 -238 30 -89 127
-175 286 -257 234 -119 440 -154 459 -76 7 25 24 33 24 11 0 -8 9 -22 20 -32
17 -15 24 -16 50 -5 36 15 78 61 117 127 26 45 28 55 28 163 0 88 -7 145 -29
245 -55 250 -68 278 -253 512 -57 72 -115 156 -128 186 -57 124 -109 385 -161
807 -25 198 -28 260 -28 515 0 373 14 491 85 709 73 221 83 348 48 583 -26
171 -21 254 27 518 20 105 42 225 49 267 8 43 28 191 45 330 17 139 44 327 61
418 70 388 207 857 318 1086 113 231 130 321 141 744 10 366 13 385 111 590
70 149 71 165 38 413 -20 147 -21 172 -10 320 15 215 25 278 61 392 61 189
149 345 216 381 29 16 36 16 110 -1 243 -53 485 -166 993 -462 145 -85 298
-172 340 -193 180 -92 292 -92 571 3 41 14 102 30 135 36 79 15 142 55 180
115 30 49 30 50 36 240 4 137 11 205 23 240 9 27 16 68 16 92 0 88 -62 229
-127 290 -14 13 -60 44 -103 68 -93 54 -188 147 -242 238 -77 129 -170 367
-238 608 -43 155 -50 195 -54 340 -8 242 -81 372 -351 620 -55 51 -106 98
-114 106 -13 12 -12 16 2 32 38 42 61 115 62 197 0 70 -4 89 -32 147 -69 146
-195 307 -261 335 -30 12 -37 12 -58 -2 -26 -17 -30 -30 -39 -128 -7 -79 -33
-155 -76 -221 -35 -52 -51 -56 -100 -23 -26 17 -34 30 -34 52 0 27 -5 32 -47
46 -58 19 -64 24 -49 43 16 19 10 56 -11 69 -11 8 -33 7 -73 -3 -51 -12 -61
-12 -108 5 -57 20 -67 29 -67 63 0 18 -4 22 -17 18 -81 -24 -113 -26 -175 -6
-82 26 -100 25 -137 -6 -24 -20 -34 -23 -50 -15 -33 18 -64 12 -121 -24 -30
-18 -56 -32 -58 -30 -3 2 1 19 7 36 35 99 -76 7 -140 -116 -20 -38 -44 -92
-53 -120 -9 -27 -27 -63 -40 -80 l-24 -29 -27 32 c-15 18 -35 32 -46 32 -17 0
-18 -6 -13 -58 6 -55 5 -61 -22 -91 l-29 -33 -40 32 c-22 18 -75 52 -117 77
-42 24 -116 79 -163 121 -244 217 -325 257 -647 316 -116 21 -225 56 -383 123
-141 59 -208 73 -239 51z"/>
<path d="M3306 2408 c-21 -30 -21 -32 15 -73 17 -19 28 -35 23 -35 -4 0 -40
23 -81 50 -40 28 -84 50 -97 50 -33 0 -50 -24 -42 -60 3 -17 4 -30 3 -30 -1 0
-38 7 -82 15 -99 18 -236 20 -253 3 -18 -18 -15 -66 6 -76 9 -5 63 -12 119
-16 116 -8 191 -27 242 -62 55 -37 91 -31 110 18 10 27 10 27 42 11 18 -9 55
-18 81 -21 41 -4 53 -1 73 18 15 14 25 35 25 52 l0 28 58 -29 c31 -16 74 -43
96 -60 59 -47 106 -38 106 21 0 49 -141 137 -313 193 -95 31 -112 31 -131 3z"/>
<path d="M6290 2392 c-8 -3 -69 -47 -136 -98 -142 -108 -180 -121 -326 -110
-85 6 -88 5 -104 -19 -15 -23 -15 -27 -1 -49 19 -28 54 -36 161 -36 87 0 170
19 222 51 l31 19 6 -30 c8 -36 57 -70 103 -70 17 0 52 6 78 14 46 14 47 14 56
-9 5 -13 18 -29 29 -34 29 -16 103 -13 129 5 37 26 24 84 -20 84 -22 0 -22 9
-3 34 29 38 13 86 -29 86 -11 0 -56 -15 -101 -34 -89 -37 -145 -51 -145 -35 0
20 34 75 71 116 37 40 48 75 31 99 -10 15 -34 22 -52 16z"/>
<path d="M9820 1546 c-161 -57 -295 -138 -307 -184 -14 -57 44 -80 93 -39 16
14 60 41 97 62 l67 37 0 -31 c0 -67 87 -93 177 -51 l42 19 13 -27 c18 -38 50
-39 122 -3 62 31 172 51 282 51 74 0 109 44 66 83 -24 22 -144 22 -257 2 -44
-8 -81 -15 -82 -15 -1 0 0 13 3 28 7 33 -16 62 -48 62 -11 0 -38 -15 -61 -33
-45 -36 -110 -77 -122 -77 -4 0 9 18 29 40 41 46 42 48 20 78 -19 28 -50 27
-134 -2z"/>
<path d="M2026 1265 c-19 -19 -20 -55 -6 -179 13 -108 21 -126 60 -126 32 0
50 22 50 61 0 19 5 17 45 -20 24 -22 53 -41 64 -41 23 0 64 48 57 67 -9 21 2
15 40 -22 39 -40 79 -46 114 -17 32 26 50 170 26 207 -34 52 -96 18 -96 -55 0
-34 -1 -34 -43 37 -23 40 -52 76 -64 82 -30 14 -66 -16 -82 -69 l-12 -41 -47
63 c-50 66 -78 81 -106 53z"/>
<path d="M5076 677 c-14 -18 -33 -63 -43 -100 l-17 -66 -31 23 c-16 12 -51 35
-78 50 -45 27 -49 27 -72 12 -27 -18 -31 -39 -15 -82 14 -36 1 -44 -74 -44
-38 0 -65 -5 -76 -15 -14 -13 -21 -11 -66 18 -65 44 -78 48 -103 31 -50 -36
-7 -94 113 -154 72 -36 86 -37 124 -5 18 15 42 25 61 25 40 0 83 22 110 56
l21 27 69 -72 c41 -41 78 -71 90 -71 32 0 53 29 47 64 -3 17 -8 51 -11 76 -8
58 10 33 20 -29 9 -52 43 -92 73 -84 11 2 37 22 58 44 35 36 69 55 47 27 -30
-38 -13 -98 28 -98 11 0 45 20 76 45 l58 45 12 -25 c27 -51 71 -56 202 -25 84
20 84 20 98 0 18 -25 83 -43 131 -35 110 19 166 53 155 96 -9 34 -38 41 -95
24 -77 -22 -116 -20 -120 7 -6 40 -42 48 -117 27 -36 -10 -66 -19 -67 -19 0 0
1 14 4 30 2 17 -1 37 -8 45 -16 19 -101 19 -152 1 -21 -8 -38 -12 -38 -10 0 2
5 15 12 29 16 36 -3 75 -38 75 -28 0 -113 -48 -178 -100 -21 -16 -42 -30 -45
-30 -4 0 -19 42 -35 93 -15 50 -35 100 -43 110 -25 27 -59 21 -87 -16z"/>
</g>
</svg>
