<svg xmlns="http://www.w3.org/2000/svg" width="24" height="24" viewBox="0 0 24 24" fill="#000000">
 <path d= "M0,0 L 64,0 64,64 0,64 z"                       />
 <path d= "M0,0 L 128,0 128,128 0,128 z">                    <aapt:attr name="android:fillColor">                        <gradient                            android:type="linear"                            android:startX="0"                            android:endX="128"                            android:startY="0"                            android:endY="0">                            <item                                android:color="@android:color/transparent"                                android:offset="0.0"  />
 <path d= "M0,0 L64,0 L64,64 L0,64 L0,0 Z M59.0587325,42.453601 C60.3124932,39.2104785 61,35.6855272 61,32 C61,15.9837423 48.0162577,3 32,3 C15.9837423,3 3,15.9837423 3,32 C3,48.0162577 15.9837423,61 32,61 C35.6855272,61 39.2104785,60.3124932 42.453601,59.0587325 C44.3362195,60.2864794 46.5847839,61 49,61 C55.627417,61 61,55.627417 61,49 C61,46.5847839 60.2864794,44.3362195 59.0587325,42.453601 Z" />
 <path d= "M -128,0 L 192,0"                android:propertyXName="translateX"                android:repeatMode="restart"                android:repeatCount="infinite"                android:startOffset="0">                <aapt:attr name="android:interpolator">                    <pathInterpolator android: />
 <path d= "M 0.0,0.0 c0.167,0.167 0.833,0.833 1.0,1.0"  />
</svg>