<svg xmlns="http://www.w3.org/2000/svg" width="24" height="24" viewBox="0 0 24 24" fill="#000000">
 <path d= " M17.71 7.71 C17.71,7.71 12,2 12,2 C12,2 11,2 11,2 C11,2 11,9.59 11,9.59 C11,9.59 6.41,5 6.41,5 C6.41,5 5,6.41 5,6.41 C5,6.41 10.59,12 10.59,12 C10.59,12 5,17.59 5,17.59 C5,17.59 6.41,19 6.41,19 C6.41,19 11,14.41 11,14.41 C11,14.41 11,22 11,22 C11,22 12,22 12,22 C12,22 17.71,16.29 17.71,16.29 C17.71,16.29 13.41,12 13.41,12 C13.41,12 17.71,7.71 17.71,7.71c  M13 5.83 C13,5.83 14.88,7.71 14.88,7.71 C14.88,7.71 13,9.59 13,9.59 C13,9.59 13,5.83 13,5.83c  M14.88 16.29 C14.88,16.29 13,18.17 13,18.17 C13,18.17 13,14.41 13,14.41 C13,14.41 14.88,16.29 14.88,16.29c " />
 <path d= " M5 10.5 C5.83,10.5 6.5,11.17 6.5,12 C6.5,12.83 5.83,13.5 5,13.5 C4.17,13.5 3.5,12.83 3.5,12 C3.5,11.17 4.17,10.5 5,10.5c " />
 <path d= " M19 10.5 C19.83,10.5 20.5,11.17 20.5,12 C20.5,12.83 19.83,13.5 19,13.5 C18.17,13.5 17.5,12.83 17.5,12 C17.5,11.17 18.17,10.5 19,10.5c " />
</svg>