<svg xmlns="http://www.w3.org/2000/svg" width="24" height="24" viewBox="0 0 24 24" fill="#000000">
 <path d= "M16,20m-2.5,0a2.5,2.5 0,1 1,5 0a2.5,2.5 0,1 1,-5 0" />
 <path d= "M25.3,1.7c-3.1,0 -5.7,2.5 -5.7,5.7V11H8c-1.3,0 -2.3,1 -2.3,2.3v13.3c0,1.3 1,2.3 2.3,2.3h16c1.3,0 2.3,-1 2.3,-2.3V13.3c0,-1.3 -1,-2.3 -2.3,-2.3h-2.3V7.3c0,-2 1.6,-3.7 3.7,-3.7c2,0 3.7,1.6 3.7,3.7V8h2V7.3C31,4.2 28.5,1.7 25.3,1.7zM24.3,13.3v13.3c0,0.2 -0.1,0.3 -0.3,0.3H8c-0.2,0 -0.3,-0.1 -0.3,-0.3V13.3C7.7,13.1 7.8,13 8,13h16C24.2,13 24.3,13.1 24.3,13.3z" />
</svg>