<svg xmlns="http://www.w3.org/2000/svg" width="24" height="24" viewBox="0 0 24 24" fill="#000000">
 <path d= "M 0 0 H 24 V 24 H 0 V 0 Z"  />
 <path d= "M12.584,15.93c0.026-0.194,0.044-0.397,0.044-0.608c0-0.211-0.018-0.405-0.044-0.608l1.304-1.022c0.115-0.088,0.15-0.256,0.071-0.397l-1.234-2.133c-0.071-0.132-0.238-0.185-0.379-0.132l-1.533,0.617c-0.317-0.247-0.67-0.449-1.04-0.608L9.535,9.4c-0.018-0.132-0.141-0.247-0.3-0.247H6.768c-0.15,0-0.282,0.115-0.3,0.256L6.23,11.048c-0.379,0.159-0.723,0.361-1.04,0.608l-1.533-0.617c-0.141-0.053-0.3,0-0.379,0.132l-1.234,2.133c-0.079,0.132-0.044,0.3,0.07,0.397l1.304,1.022c-0.026,0.194-0.044,0.405-0.044,0.608s0.018,0.405,0.044,0.608l-1.304,1.022c-0.115,0.088-0.15,0.256-0.07,0.397l1.234,2.133c0.07,0.132,0.238,0.185,0.379,0.132l1.533-0.617c0.317,0.247,0.67,0.449,1.04,0.608l0.238,1.639c0.018,0.15,0.15,0.256,0.3,0.256h2.467c0.159,0,0.282-0.115,0.3-0.256l0.238-1.639c0.379-0.15,0.723-0.361,1.04-0.608l1.533,0.617c0.141,0.053,0.3,0,0.379-0.132l1.234-2.133c0.071-0.132,0.044-0.3-0.07-0.397L12.584,15.93zM8.002,17.481c-1.19,0-2.159-0.969-2.159-2.159s0.969-2.159,2.159-2.159s2.159,0.969,2.159,2.159C10.161,16.512,9.191,17.481,8.002,17.481z"  />
 <path d= "M16.003,12.026l5.995-7.474c-0.229-0.172-2.537-2.06-6-2.06s-5.771,1.889-6,2.06l5.995,7.469l0.005,0.01L16.003,12.026z"  />
</svg>